# xmcd
#
# Track frame offsets:
#	150
#	13287
#	30135
#	42031
#	59138
#	72001
#	85959
#	100907
#	114912
#	131645
#	147103
#	159372
#	175529
#	193451
#
# Disc length: 2815 seconds
#
# Revision: 0
# Processed by: cddbd v1.5.2PL0 Copyright (c) Steve Scherf et al.
# Submitted via: EZCDAudioConverter 1.3.4.1
#
DISCID=b70afd0e
DTITLE=Johnny Chester - What You Hear Is What You Get
DYEAR=1900
DGENRE=
TTITLE0=I'm On The Road Again
TTITLE1=She'd Rather Not Know
TTITLE2=Vegemite Kisses
TTITLE3=Under Western Skies
TTITLE4=Cute Bootscooter
TTITLE5=The Chance
TTITLE6=Make It To The Bell
TTITLE7=Missing You
TTITLE8=Drive Away
TTITLE9=Too Close To The edge
TTITLE10=Not Done Yet
TTITLE11=The Rock'n'roll  Years
TTITLE12=Jailhouse Blues
TTITLE13=He Never Told Us His Name
EXTD=
EXTT0=
EXTT1=
EXTT2=
EXTT3=
EXTT4=
EXTT5=
EXTT6=
EXTT7=
EXTT8=
EXTT9=
EXTT10=
EXTT11=
EXTT12=
EXTT13=
PLAYORDER=
